<svg xmlns="http://www.w3.org/2000/svg" x="0px" y="0px"
width="32" height="32"
viewBox="0 0 172 172"
style=" fill:#000000;"><g fill="none" fill-rule="nonzero" stroke="none" stroke-width="1" stroke-linecap="butt" stroke-linejoin="miter" stroke-miterlimit="10" stroke-dasharray="" stroke-dashoffset="0" font-family="none" font-weight="none" font-size="none" text-anchor="none" style="mix-blend-mode: normal"><path d="M0,172v-172h172v172z" fill="none"></path><g><path d="M139.75,172h-107.5c-17.81275,0 -32.25,-14.43725 -32.25,-32.25v-107.5c0,-17.81275 14.43725,-32.25 32.25,-32.25h107.5c17.81275,0 32.25,14.43725 32.25,32.25v107.5c0,17.81275 -14.43725,32.25 -32.25,32.25z" fill="#512bd4"></path><path d="M43,99.64713c0,0.01075 0,0.0215 0,0.03225c0,0.6665 0.26875,1.27387 0.70413,1.71462c0.42462,0.44612 1.02125,0.731 1.68238,0.731c0.01075,0 0.0215,0 0.03762,0h0.00537c0.00538,0 0.00538,0 0.01075,0c0.67188,0 1.27387,-0.2795 1.70387,-0.731c0.44613,-0.43537 0.72563,-1.04812 0.72563,-1.72538c0,-0.00538 0,-0.01613 0,-0.02687c0,-0.00538 0,-0.00538 0,-0.00538c0,-0.68263 -0.27412,-1.29538 -0.72025,-1.73613c-0.43,-0.46225 -1.03737,-0.74712 -1.71463,-0.74712c-0.00538,0 -0.00538,0 -0.00538,0c-0.01075,0 -0.02688,0 -0.043,0c-0.01075,0 -0.02688,0 -0.03762,0h-0.00538h-0.00537c-0.65038,0.01612 -1.2255,0.301 -1.634,0.74712c-0.43538,0.44075 -0.70413,1.0535 -0.70413,1.72537c0,0.01075 0,0.01075 0,0.0215z" fill="#ffffff"></path><path d="M103.61388,73.2505v-3.37013h-15.8885v31.80925h16.6625l0.01613,-3.49375h-12.93225v-11.02412h11.31975v-3.34862h-11.31975v-10.57263z" fill="#ffffff"></path><path d="M58.996,76.35725h-0.00538l-0.0215,-0.03762z" fill="#ffffff"></path><path d="M129,69.88038h-21.79025v3.36475h9.01387v28.4445h3.66037v-28.4445h9.116z" fill="#ffffff"></path><path d="M58.01238,78.69c0.00537,-0.25262 0.01075,-0.559 0.01075,-0.86c0,-1.23625 -0.06988,-2.45637 -0.19888,-3.655l0.01613,0.1505h0.13438c0.29025,0.76325 0.62888,1.419 1.02125,2.02638l16.09275,25.327h4.50425v-31.80388h-3.66038v22.37075c-0.00537,0.215 -0.00537,0.46762 -0.00537,0.72563c0,1.39212 0.08062,2.76812 0.24187,4.11725l-0.01613,-0.16125h-0.08062c-0.1935,-0.387 -0.61813,-1.09113 -1.27388,-2.1285l-15.68425,-24.9185h-4.76225v31.80925h3.66575v-22.99963z" fill="#ffffff"></path></g></g></svg>
